<?xml version="1.0" encoding="utf-8"?>
<!-- Svg Vector Icons : http://www.onlinewebfonts.com/icon -->
<!DOCTYPE svg PUBLIC "-//W3C//DTD SVG 1.1//EN" "http://www.w3.org/Graphics/SVG/1.1/DTD/svg11.dtd">
<svg version="1.1" xmlns="http://www.w3.org/2000/svg" xmlns:xlink="http://www.w3.org/1999/xlink" x="0px" y="0px" viewBox="0 0 1000 1000" enable-background="new 0 0 1000 1000" xml:space="preserve">
<metadata> Svg Vector Icons : http://www.onlinewebfonts.com/icon </metadata>
<g><g transform="translate(0.000000,400.000000) scale(0.100000,-0.100000)"><path d="M4716.1,3840.7c-452-324.3-800.9-402.9-1945.7-425l-759.1-17.2l-71.2-81.1c-130.2-145-73.7-336.6,117.9-400.4c122.8-39.3,1270.1-12.3,1653.3,39.3c351.3,46.7,700.2,137.6,909,235.8l159.7,76.2l49.1-68.8c415.2-569.9,845.1-886.9,1528.1-1122.7c513.4-179.3,985.1-248.1,1677.9-245.7l503.6,2.4l-56.5-272.7c-49.1-226-61.4-353.8-63.9-705.1c-2.5-466.8,19.7-631.4,135.1-987.6c130.2-398,336.6-761.6,633.8-1110.4l142.5-169.5l-103.2-211.3c-218.7-442.2-307.1-850-307.1-1420c0-410.2,49.1-771.4,159.7-1149.7c78.6-265.3,125.3-351.3,226-410.3c108.1-63.9,245.7-17.2,314.5,108.1c51.6,98.3,56.5,66.3-68.8,491.3C9305.1-3178,9400.9-2247,9794-1632.8c54.1,83.5,95.8,184.3,103.2,243.2c9.8,95.8,2.5,108.1-167.1,294.8C9216.7-534.7,8978.4-48.2,8921.9,568.4c-39.3,398,29.5,926.2,172,1341.3c127.8,371,2.5,525.7-375.9,469.2c-356.2-51.6-1012.1-59-1365.9-14.7c-1085.8,140-1827.8,572.4-2181.5,1270.1c-44.2,90.9-110.5,186.7-147.4,216.2C4934.7,3919.3,4819.3,3916.8,4716.1,3840.7z"/><path d="M3595.8,2135.7c-179.3-46.7-368.5-172-972.8-643.7l-636.3-493.8l-358.7,17.2c-429.9,19.6-921.2-17.2-1149.7-88.4c-113-34.4-196.5-81.1-270.2-149.9L100,676.5V182.7v-493.8L232.7-70.4c201.5,366,309.5,496.2,437.3,530.6c186.7,51.6,1017.1,61.4,1439.6,17.2c206.4-22.1,417.6-54.1,466.8-71.2c95.8-34.4,1321.7-940.9,1729.5-1279.9c130.2-110.6,238.3-213.7,238.3-230.9c2.5-54.1-203.9-240.7-348.8-312c-125.3-58.9-162.1-66.3-309.5-56.5c-201.4,14.7-368.5,100.7-572.4,292.4c-71.2,68.8-152.3,140-181.8,159.7c-59,39.3-1053.9,280.1-1162,280.1c-149.9,0-189.2-41.8-484-523.3c-321.8-525.7-353.8-619.1-253-739.5c36.9-39.3,93.3-71.3,149.9-81.1c149.8-22.1,218.6,41.8,459.4,437.3c181.8,299.7,226,353.7,280.1,361.1c51.6,7.4,66.3-2.5,66.3-41.7c0-24.6,19.6-95.8,46.7-154.8c81.1-189.2,174.4-557.6,216.2-837.7c100.7-712.4-56.5-1378.2-447.1-1913.8c-199-275.1-203.9-425-17.2-520.8c157.2-78.6,299.7,19.6,525.7,366c314.4,479.1,461.8,1004.8,461.8,1646c0,442.2-83.5,940.9-211.3,1275c-31.9,81.1,61.4,36.8,240.8-115.5c218.6-184.3,346.4-262.9,560.1-336.6c88.4-31.9,162.1-58.9,164.6-61.4c2.4,0-22.1-83.5-56.5-184.2c-56.5-157.2-63.9-213.7-54-405.4c7.4-184.2,22.1-248.1,86-388.2c130.2-275.1,380.8-496.3,675.6-589.6c39.3-14.7,39.3-24.6-4.9-149.8c-140-398-56.5-791.1,235.8-1095.7c321.8-336.6,805.8-432.4,1216-235.8c73.7,34.4,316.9,203.9,540.5,378.3c488.9,380.8,496.3,383.3,405.4,260.4c-402.9-542.9-899.1-1034.3-1424.9-1405.2L5202.5-5900h422.6h420.1l117.9,103.2c368.5,326.7,700.2,685.4,958.1,1034.2c267.8,361.1,545.4,889.3,545.4,1039.2c0,66.3,19.6,113,76.1,176.9c179.4,203.9,292.4,597,245.7,847.5c-54,282.5-159.7,476.6-361.1,653.5c-115.5,100.7-341.5,223.6-412.7,223.6c-49.1,0-49.1-4.9,12.3,132.7c63.9,147.4,86,405.4,49.1,584.7c-86,407.8-422.5,754.2-815.6,840.2l-63.9,14.7l36.8,164.6c29.5,135.1,31.9,201.4,12.3,346.4c-95.8,660.8-727.2,1093.2-1358.5,928.6c-144.9-36.9-172-27-172,73.7c0,86-78.6,285-159.7,417.6c-100.7,157.2-253,287.4-449.6,383.2c-135.1,66.3-184.2,76.1-393.1,83.5C3782.5,2152.9,3640.1,2145.6,3595.8,2135.7z M4121.6,1595.3c275.1-137.6,380.8-474.1,240.7-756.7c-51.6-98.3-117.9-167-324.3-329.2c-144.9-113-282.5-221.1-307.1-240.7c-41.8-29.5-83.5-4.9-420.1,250.6c-378.3,285-498.7,361.1-570,361.1c-22.1,0-36.9,9.8-31.9,22.1c7.4,24.6,628.9,518.4,803.3,638.7C3701.5,1676.3,3927.5,1696,4121.6,1595.3z M5526.8,693.7c348.8-103.2,520.8-508.5,356.2-837.7c-49.1-103.2-108.1-162.1-299.7-307.1c-130.2-100.7-312-238.3-400.4-309.5l-162.1-127.7l-59,83.5c-59,83.5-469.2,439.7-705.1,614.2c-71.3,51.6-127.8,103.2-122.8,115.5c7.4,19.6,773.9,621.5,886.9,697.7c73.7,46.7,250.6,105.6,326.7,108.1C5374.5,733,5455.5,715.8,5526.8,693.7z M6396.4-768c117.9-31.9,275.1-172,341.5-302.2c71.2-137.6,66.3-353.8-9.8-503.6c-49.1-95.8-181.8-208.8-916.3-781.2c-471.7-368.5-889.3-680.5-931.1-695.2c-120.4-41.8-348.9-29.5-454.5,24.6c-230.9,115.5-363.6,398-299.7,633.8c49.1,189.2,108.1,255.5,511,565c213.7,164.6,599.4,461.9,854.9,660.8c257.9,199,506.1,375.9,552.8,393.1C6150.8-736.1,6273.6-733.7,6396.4-768z M7167.8-2340.3c341.5-164.6,432.4-606.8,181.8-884.4C7231.7-3352.5,5740.5-4512,5612.8-4573.4c-361.1-176.9-796,105.6-796,515.9c0,167.1,61.4,302.2,186.7,420.1c172,159.7,1567.4,1235.7,1677.9,1292.2C6823.9-2271.5,7022.9-2269.1,7167.8-2340.3z"/></g></g>
</svg>