<?xml version="1.0" encoding="utf-8"?>
<!-- Svg Vector Icons : http://www.onlinewebfonts.com/icon -->
<!DOCTYPE svg PUBLIC "-//W3C//DTD SVG 1.1//EN" "http://www.w3.org/Graphics/SVG/1.1/DTD/svg11.dtd">
<svg version="1.1" xmlns="http://www.w3.org/2000/svg" xmlns:xlink="http://www.w3.org/1999/xlink" x="0px" y="0px" viewBox="0 0 1000 1000" enable-background="new 0 0 1000 1000" xml:space="preserve">
<metadata> Svg Vector Icons : http://www.onlinewebfonts.com/icon </metadata>
<g><path d="M227,786.7c-61.1-41.3-109.1-102.1-132.2-176.9c-35-112.9-5.2-229.7,68.2-313c4.7-20,10.4-39.7,16.9-59.1C71,328.4,21.1,476.4,65.1,618.6C96.2,718.9,168,796.1,257.4,838.9C246.6,822,236.4,804.7,227,786.7z"/><path d="M757.2,602.9C742.3,674,703.8,740.8,642.4,791c-92.7,75.7-214.4,94.8-321.7,61.7c-20.7,3.6-41.5,6.3-62.3,8.1c128.1,62.1,287.2,48.8,403.9-46.6c82.3-67.3,126.9-162,132.1-259C782.7,571.4,770.4,587.4,757.2,602.9z"/><path d="M225.5,229.6c60.1-42.3,135-66.1,215.6-62.5c121.6,5.4,225.9,71.5,283.4,166.5c18,11,35.5,22.7,52.2,35.1c-53.2-129.9-181.4-224.8-334.5-231.7c-108-4.8-206.6,35.4-277.4,103.1C184.7,235.9,204.9,232.3,225.5,229.6z"/><path d="M382.5,119.9C356.9,37.4,266.2-8.9,179.8,16.6C93.5,42.1,44.2,129.6,69.8,212.1c25.5,82.5,116.3,128.8,202.6,103.3C358.7,290,408,202.4,382.5,119.9z"/><path d="M361.7,120.9C340.4,49.2,264.6,9,192.5,31.1C120.3,53.3,79.2,129.3,100.5,201c21.4,71.7,97.1,111.9,169.2,89.8C341.9,268.6,383.1,192.6,361.7,120.9z"/><path d="M329.5,787.9c-25.5-82.5-116.3-128.8-202.6-103.3S-8.8,797.6,16.8,880.1c25.5,82.5,116.3,128.8,202.6,103.3C305.7,958,355,870.4,329.5,787.9z"/><path d="M313.3,798.8c-23-71.7-104.6-111.9-182.3-89.8c-77.7,22.1-122,98.2-99,169.9c23,71.7,104.6,111.9,182.3,89.8C292,946.5,336.3,870.5,313.3,798.8z"/><path d="M983.3,450.1C957.7,367.5,867,321.3,780.6,346.7c-86.3,25.5-135.6,113-110.1,195.6c25.6,82.5,116.3,128.8,202.6,103.3C959.5,620.2,1008.8,532.6,983.3,450.1z"/><path d="M967.8,448.1c-23-71.7-104.6-111.9-182.3-89.8c-77.7,22.1-122,98.2-99,169.9c23,71.7,104.6,111.9,182.3,89.8C946.5,595.9,990.8,519.8,967.8,448.1z"/></g>
</svg>