<?xml version="1.0" encoding="utf-8"?>
<!-- Svg Vector Icons : http://www.onlinewebfonts.com/icon -->
<!DOCTYPE svg PUBLIC "-//W3C//DTD SVG 1.1//EN" "http://www.w3.org/Graphics/SVG/1.1/DTD/svg11.dtd">
<svg version="1.1" xmlns="http://www.w3.org/2000/svg" xmlns:xlink="http://www.w3.org/1999/xlink" x="0px" y="0px" viewBox="0 0 1000 1000" enable-background="new 0 0 1000 1000" xml:space="preserve">
<metadata> Svg Vector Icons : http://www.onlinewebfonts.com/icon </metadata>
<g><path d="M487.2,819l-346.7-358l88.9-72.3l200.5,159.6C512,449,694.4,252.2,946,95.6l21.2,49.6C736.3,360.7,547.2,664,487.2,819L487.2,819L487.2,819z M921.6,397.7c7.9,32.8,12.2,67,12.2,102.3c0,239.6-194.2,433.8-433.8,433.8C260.4,933.8,66.2,739.6,66.2,500C66.2,260.4,260.4,66.2,500,66.2c59.6,0,116.4,12,168,33.8V39.6C615.6,20.4,559,10,500,10C229.4,10,10,229.4,10,500c0,270.6,219.4,490,490,490c270.6,0,490-219.4,490-490c0-35.1-3.7-69.3-10.7-102.3H921.6L921.6,397.7z"/></g>
</svg>